<svg xmlns="http://www.w3.org/2000/svg" viewBox="0 0 725 582"><path fill="#fbfbfb" stroke="#fbfbfb" d="M381 105.479c-10.862 1.61-26.713 6.606-34.826 10.977l-6.326 3.408-6.674-1.415c-6.805-1.442-18.349-1.941-19.449-.84-.335.335.443 2.247 1.728 4.25 1.286 2.002 2.877 5.349 3.535 7.436l1.197 3.795-7.618 7.569c-8.521 8.466-12.593 14.462-4.935 7.267 13.276-12.474 13.793-12.501 13.094-.676-.47 7.95-1.563 13.403-5.361 26.75-.497 1.749 1.669-.03 7.212-5.922 8.65-9.194 20.643-17.707 34.173-24.256 4.538-2.196 8.25-4.534 8.25-5.195 0-1.426-8.074-9.342-12.898-12.646l-3.397-2.328 2.397-.909c15.03-5.7 47.192-6.138 65.404-.89 2.707.78 34.622-4.649 36.117-6.144.778-.777-8.193-4.583-15.828-6.715-17.597-4.915-37.78-6.186-55.795-3.516m98.5 10.62c-28.056 3.392-44.46 6.678-74.5 14.92-30.051 8.245-31.267 9.78-3.184 4.019 49.079-10.07 104.334-13.956 128.927-9.068l6.243 1.241-2.164 3.145c-1.189 1.729-10.074 11.141-19.742 20.915-9.669 9.775-17.805 18.044-18.08 18.378-1.773 2.147 7.711-4.014 18.164-11.801C527.696 148.513 553 124.373 553 121.753c0-5.119-47.625-8.782-73.5-5.654M444 152.647c-15.46 2.315-18.62 4.345-6.809 4.373 22.203.053 36.743 5.401 38.495 14.158.739 3.698 1.638 3.573 7.816-1.092 10.173-7.681 8.818-14.35-3.45-16.981-4.725-1.014-30.184-1.337-36.052-.458m-108.518 10.986c-17.074 11.288-30.785 33.629-35.837 58.394l-1.311 6.428-18.917 3.184c-36.399 6.126-66.518 15.303-86.417 26.33-5.357 2.969-3.432 3.936 3.29 1.654 24.938-8.467 68.837-12.988 90.144-9.285 4.914.854 9.278 1.34 9.699 1.08.824-.51 1.427 2.605 2.34 12.082 3.686 38.286 28.946 71.437 62.427 81.93 14.439 4.525 27.567 4.6 15.35.087-35.702-13.187-57.299-36.084-66.243-70.232-2.2-8.398-4.483-29.254-3.591-32.807.65-2.588 8.942-9.105 16.386-12.877 7.104-3.601 6.686-3.867-4.803-3.052l-10.001.709.591-3.379c3.394-19.415 17.757-47.79 29.767-58.803 4.93-4.521 3.141-5.42-2.874-1.443m161.702 11.48c-7.644 5.203-10.053 7.34-9.301 8.246 1.867 2.25 7.004 19.049 8.569 28.026 9.981 57.237-25.839 113.337-81.952 128.348-7.764 2.077-7.813 2.137-6.412 7.704 1.503 5.968 1.982 6.121 13.242 4.219C488.637 340.284 533.705 278.867 524.544 211c-2.204-16.324-11.61-42.167-15.544-42.705-.825-.113-6.142 2.955-11.816 6.818m-20.684 7.039c-11.474 9.397-20.319 14.817-45.585 27.933-42.118 21.862-60.379 36.037-75.933 58.941-16.622 24.478-13.325 50.883 7.502 60.075 5.666 2.5 17.84 3.801 18.939 2.024.42-.68-.043-1.125-1.17-1.125-5.696 0-14.901-4.496-20.347-9.938-8.905-8.898-9.962-18.424-3.903-35.17 7.906-21.848 25.144-37.588 75.997-69.395 26.416-16.522 41.417-27.132 47.932-33.901 5.104-5.304 3.382-5.025-3.432.556m-76.015 56.744C395.269 241.888 385 250.579 385 252.002c0 .449 2.281.215 5.07-.52 10.446-2.756 25.202-2.739 32.18.036 5.189 2.064-2.464-7.484-9.999-12.475-5.6-3.709-5.558-3.709-11.766-.147m2.702 40.669c-11.138 11.453-19.565 27.085-20.88 38.734-.748 6.627-.443 6.253 4.605-5.644 3.887-9.162 11.859-23.217 12.695-22.382.202.203-.572 3.037-1.72 6.298-9.197 26.114-5.096 53.988 11.186 76.028 4.214 5.704 4.07 6.128-1.323 3.907-3.148-1.295-1.836 1.164 2 3.751 4.065 2.741 11.036 5.291 11.954 4.372.313-.313-1.27-3.395-3.518-6.849-18.686-28.706-22.726-62.542-11.314-94.759 1.652-4.663 2.798-8.685 2.546-8.936-.252-.252-3.056 2.214-6.231 5.48m-78.428 47.009c-2.138 2.138 3.789 13.67 10.498 20.426 7.55 7.604 21.216 15.741 19.185 11.424-.497-1.058-.913-4.535-.923-7.725l-.019-5.802-5.666-2.302c-6.186-2.515-9.29-4.644-17.259-11.839-2.89-2.608-5.507-4.491-5.816-4.182m-41.184 52.692c-7.759 4.416-10.73 15.39-6.619 24.447 1.942 4.276 4.803 6.678 15.022 12.608 6.538 3.795 8.252 7.153 5.665 11.102-3.513 5.36-10.208 2.77-11.432-4.423l-.766-4.5H275.5l-.302 4.687c-.927 14.369 16.56 24.016 27.501 15.173 12.712-10.275 10.293-23.753-5.821-32.426-10.584-5.696-13.024-9.936-8.805-15.299 4.474-5.688 10.145-2.559 10.907 6.02l.52 5.845 4.324.311c6.266.451 7.546-1.004 6.761-7.683-1.797-15.29-14.699-22.867-27.01-15.862m47.661-1.463-5.264.303.264 31.197.264 31.197 5.75.3 5.75.3V414h13v27h11v-63h-11v24h-13v-11.941c0-6.568-.337-12.08-.75-12.25-.413-.17-3.119-.173-6.014-.006m56.263.199c-.662 1.07-11.443 59.054-11.481 61.748-.012.849 1.73 1.25 5.437 1.25 5.442 0 5.456-.008 6.111-3.5l.657-3.5h11.554l.657 3.5.657 3.5h11.128l-.445-3.25c-.245-1.788-2.657-15.962-5.36-31.5L401.501 378h-5.169c-2.843 0-5.835-.256-6.649-.568-.814-.313-1.797-.056-2.184.57m40.389.066c-.534.331-.807 13.494-.653 31.5l.265 30.932h11l.279-13.25.279-13.25h3.86c7.241 0 8.507 2.113 9.082 15.158l.5 11.342 5.25.302 5.25.303v-12.341c0-10.295-.326-12.98-1.966-16.197l-1.965-3.855 2.165-3.041c5.673-7.966 2.335-21.3-6.454-25.783-4.049-2.066-24.283-3.435-26.892-1.82m53.29.85c-.347.87-.641 15.082-.654 31.582l-.024 30h11l.5-11.704c.562-13.149 1.951-16.543 4.39-10.723.789 1.885 3.474 7.814 5.965 13.177l4.529 9.75h5.499c3.024 0 5.711-.344 5.971-.763.432-.7-9.511-23.122-14.572-32.858l-2.142-4.121 7.662-12.331c7.567-12.179 7.995-13.851 3.413-13.341a74.55 74.55 0 0 1-4.849.331c-2.197.069-3.69 1.701-9 9.833l-6.366 9.75-.29-9.466c-.185-6.032-.73-9.741-1.5-10.225-2.176-1.365-8.856-.588-9.532 1.109M439 395.448c0 6.978-.074 6.892 5.777 6.701 11.334-.37 10.757-12.283-.628-12.951l-5.149-.303v6.553M393.681 402c-.349 1.375-1.11 5.425-1.691 9s-1.302 7.738-1.602 9.25c-.526 2.644-.388 2.75 3.578 2.75 4.111 0 4.123-.01 3.517-3.25-.334-1.788-1.183-7.075-1.887-11.75-.921-6.118-1.458-7.799-1.915-6" fill-rule="evenodd"/><path fill="#8ecbf0" stroke="#8ecbf0" d="M392 104.682c-14.357 1.059-32.28 5.896-44.486 12.004-6.72 3.362-7.192 3.454-12.417 2.405-5.505-1.106-21.097-1.527-21.097-.57 0 .287 1.152 2.263 2.56 4.39 6.266 9.469 6.206 26.947-.169 48.957-.472 1.63 1.772-.109 7.212-5.59 8.82-8.887 18.898-15.886 32.067-22.271 4.857-2.354 8.994-4.421 9.195-4.592.773-.66-5.831-7.724-10.502-11.235-6.523-4.901-6.591-5.241-1.363-6.809 18.221-5.467 45.021-5.636 62.966-.398 2.959.863 27.077-2.906 34.534-5.398 4.251-1.42-23.833-9.172-38.346-10.584-9.549-.929-11.377-.957-20.154-.309m92.5 11.414c-24.654 2.311-46.932 6.538-76 14.419-26.869 7.286-27.237 8.269-1.146 3.066 27.904-5.564 53.643-8.801 80.646-10.14 16.668-.827 46.351 1.576 48.719 3.944 1.12 1.121-5.346 8.451-21.496 24.365-9.07 8.938-16.181 16.25-15.802 16.25 4.674 0 41.008-30.916 50.666-43.11l3.072-3.879-2.675-1.017c-10.26-3.901-44.426-5.92-65.984-3.898m-169.266 22.933c-1.796 1.634-2.916 2.971-2.49 2.971.845 0 6.256-4.792 6.256-5.54 0-.77-.378-.512-3.766 2.569m125.33 14.554c-13.28 2.064-12.535 3.114 2.604 3.67 18.784.689 28.236 4.115 31.994 11.596 2.316 4.609 2.344 4.62 6.035 2.335 9.082-5.621 11.247-11.878 5.303-15.327-6.664-3.865-28.684-4.956-45.936-2.274M331.94 166.704c-15.247 11.462-29.006 36.097-32.555 58.289l-.588 3.675-16.648 2.76c-38.323 6.352-80.454 19.383-90.649 28.037l-2 1.698 2-.685c27.016-9.255 68.504-13.745 95.975-10.388L298 251.377v4.404c0 10.972 6.97 35.754 13.258 47.143 13.867 25.114 33.223 39.626 59.58 44.671 12.067 2.31 12.884 1.011 1.912-3.039-39.703-14.654-64.283-48.732-66.397-92.056l-.585-12 5.366-3.976c2.951-2.187 8.066-5.465 11.366-7.285l6-3.308-6 .57c-3.3.314-7.913.807-10.25 1.096-5.111.632-5.173.331-2.27-11.017 4.28-16.735 12.415-32.826 23.605-46.685 7.359-9.116 7.046-9.724-1.645-3.191m166.578 8.283c-4.941 3.249-9.125 6.335-9.3 6.859-.175.524 1.227 5.389 3.115 10.811 21.899 62.917-13.62 130.594-77.583 147.822-7.321 1.972-7.561 2.355-5.334 8.521 1.447 4.007 2.088 4.062 15.584 1.345 44.209-8.902 79.937-40.463 93.812-82.871 4.959-15.157 5.634-19.754 5.652-38.474.021-21.963-3.584-38.432-12.094-55.25-2.995-5.919-2.967-5.922-13.852 1.237m-21.962 7.578c-8.437 7.449-22.655 16.127-46.564 28.419-40.313 20.727-59.745 35.911-74.842 58.483-18.755 28.042-11.269 56.913 16.003 61.717 8.744 1.54 10.794.083 3.206-2.279-22.8-7.095-28.221-24.71-15.655-50.865 8.592-17.883 25.951-32.863 72.27-62.365 29.776-18.965 40.721-26.64 46.479-32.59 4.819-4.981 4.419-5.213-.897-.52m-76.34 56.885c-5.782 3.808-15.412 11.688-14.904 12.195.178.178 3.668-.387 7.756-1.256 7.27-1.544 20.875-1.449 28.432.2 2.94.641 2.9.55-2-4.569-4.686-4.895-11.464-10.02-13.253-10.02-.436 0-3.15 1.552-6.031 3.45m2.075 41.825c-9.75 10.154-15.58 20.335-18.832 32.884-1.684 6.497-1.21 9.294.663 3.92 3.431-9.842 15.061-30.229 16.452-28.838.183.183-.778 3.393-2.136 7.133-9.492 26.149-5.595 52.835 11.139 76.287l4.425 6.2-3.185-.913c-4.177-1.198-4.525-.65-1.234 1.938 2.867 2.255 10.064 4.8 10.981 3.883.303-.303-1.121-3.165-3.165-6.359-17.962-28.079-22.147-62.414-11.373-93.306 1.623-4.653 2.804-8.607 2.625-8.787-.179-.179-3.041 2.502-6.36 5.958M325.01 328.75c.037 6.748 9.496 18.769 20.626 26.212 8.983 6.009 9.723 6.142 7.74 1.396-1.395-3.34-1.35-5.655.187-9.662.419-1.092-.782-1.94-4.494-3.173-5.264-1.748-14.383-7.971-19.569-13.354-3.434-3.564-4.504-3.902-4.49-1.419m-39.508 49.825c-8.205 4.279-11.9 12.519-9.541 21.279 1.559 5.79 5.777 10.199 14.578 15.234 7.784 4.453 9.274 6.535 8.082 11.285-1.827 7.278-11.843 4.681-12.428-3.223l-.308-4.15H275v3.532c0 18.958 25.41 25.993 33.057 9.152 4.763-10.492 1.742-17.604-10.584-24.91-4.385-2.6-8.761-5.687-9.723-6.861-3.861-4.709-1.048-11.913 4.652-11.913 4.426 0 6.403 2.48 6.783 8.507l.315 4.993 5.25.302 5.25.303v-5.585c0-14.404-13.01-23.934-24.498-17.945m41.734 30.675.264 31.25 4.615.299 4.614.3.539-4.8c.297-2.639.415-8.742.263-13.562-.314-9.958-.122-10.172 8.549-9.553l4.42.316.5 13.5.5 13.5h10l.264-31.25.264-31.25h-10.966l-.281 12.25-.281 12.25-5.907.305c-7.423.382-7.563.149-7.058-11.759.543-12.805.439-13.046-5.617-13.046h-4.946l.264 31.25m55.798-7c-2.368 13.337-4.868 27.292-5.555 31.01-1.233 6.666-1.219 6.767 1.015 7.328 4.883 1.225 7.963.108 8.511-3.088.51-2.972.576-3 6.995-3 6.419 0 6.485.028 6.995 3 .469 2.735.901 3.028 4.896 3.314 2.409.173 4.715-.052 5.123-.5.544-.597-5.24-36.613-9.968-62.064-.025-.137-3.119-.25-6.876-.25h-6.83l-4.306 24.25m44.763-8c-.164 8.938-.072 23 .203 31.25l.5 15h9l.279-13.25.279-13.25h4.797c7.85 0 9.145 2.166 9.145 15.295 0 11.807.368 12.363 7.629 11.533l2.871-.328v-12.547c0-10.266-.318-13.032-1.75-15.215-2.222-3.388-2.196-4.355.199-7.401 4.088-5.196 3.577-14.857-1.1-20.802-3.978-5.057-8.673-6.535-20.763-6.535h-10.993l-.296 16.25m53.439 15 .264 31.25 2.871.328c7.285.833 7.629.303 7.629-11.765 0-17.961 1.527-18.487 8.506-2.935C507.15 440.931 507.205 441 512.498 441c2.411 0 4.674-.47 5.029-1.044.355-.575-2.993-8.737-7.441-18.14-4.447-9.402-8.086-17.771-8.086-18.596 0-.825 3.36-6.837 7.466-13.36l7.466-11.86h-10.977l-6.728 10.25-6.727 10.25-.285-10.25-.285-10.25h-10.958l.264 31.25m-43.032-13.5.296 6.75 4.556.297c6.064.395 9.944-2.459 9.944-7.313 0-4.549-2.915-6.484-9.768-6.484h-5.323l.295 6.75m-44.468 3.75c-.743 2.27-3.736 20.684-3.736 22.989 0 1.096 1.098 1.511 4 1.511 3.715 0 3.995-.196 3.926-2.75-.163-6.099-3.553-23.695-4.19-21.75" fill-rule="evenodd"/><path fill="#beced7" stroke="#beced7" d="M489.5 116.016c-16.38 1.439-34.145 3.984-48.552 6.954-14.537 2.997-49.248 12.063-48.614 12.697.211.211 7.085-.962 15.275-2.607 35.657-7.162 70.152-10.609 97.709-9.766 22.193.68 31.682 2.147 31.682 4.9 0 1.113-7.541 9.599-18.25 20.535-18.165 18.551-18.488 19.333-3.25 7.848 17.656-13.308 37.931-33.546 35.771-35.706-3.524-3.524-42.261-6.569-61.771-4.855m-171.69 9.052c4.685 9.131 5.271 24.844 1.426 38.193-1.23 4.269-2.236 8.064-2.236 8.433 0 .37 3.038-2.402 6.75-6.159 7.623-7.715 19.903-16.14 32.045-21.985 9.695-4.668 9.762-4.929 2.886-11.2-11.608-10.585-21.219-14.273-37.339-14.326l-7.158-.024 3.626 7.068M449 153.015c-4.675.465-10.3 1.282-12.5 1.815-3.89.943-3.818.972 2.619 1.07 18.188.276 32.598 5.303 36.381 12.693 1.1 2.149 2.085 4.067 2.189 4.263.996 1.873 12.311-9.309 12.311-12.166 0-6.071-19.829-9.783-41-7.675m-116.031 13.361c-14.993 11.005-27.146 31.306-31.978 53.417-1.891 8.657-2.865 10.164-6.583 10.192-9.526.069-50.037 8.924-69.143 15.112-11.792 3.82-34.123 13.434-33.176 14.283.226.202 6.486-1.17 13.911-3.05 26.58-6.729 53.777-9.43 73-7.249 6.325.718 13.161 1.31 15.192 1.315l3.692.011.622 6.546c3.635 38.317 22.782 69.783 50.832 83.537 8.119 3.981 20.989 7.531 27.072 7.467 3.857-.04 3.535-.265-5.663-3.959C330.045 327.652 306 292.541 306 249.453v-9.285l3.942-3.122c2.168-1.717 6.555-4.725 9.75-6.684l5.808-3.563-9.199.672-9.198.671.578-3.821c2.617-17.309 13.81-40.762 26.521-55.571 5.611-6.538 5.288-7.161-1.233-2.374M469 189.122c-3.485 3.055-3.486 3.059-.28.927 1.771-1.178 3.485-2.571 3.809-3.096.964-1.56.164-1.069-3.529 2.169m-10 6.596c-3.025 1.989-16.67 9.384-30.323 16.435-13.653 7.05-27.914 14.892-31.692 17.426-25.443 17.071-45.046 39.904-50.516 58.842-6.192 21.435 7.74 42.732 27.819 42.525l5.212-.054-5.5-1.768c-21.003-6.753-27.617-22.939-18.547-45.394 8.7-21.54 25.347-36.546 77.065-69.471 23.704-15.09 34.151-22.221 32.482-22.172-.275.008-2.975 1.642-6 3.631m-60.653 45.288c-3.282 2.203-7.442 5.529-9.246 7.389l-3.279 3.384 5.839-1.374c6.806-1.601 22.33-1.842 27.279-.422 1.885.54 3.65.761 3.921.489 1.461-1.46-13.329-13.472-16.589-13.472-1.078 0-4.644 1.803-7.925 4.006m3.186 41.201c-7.204 7.935-12.795 17.272-16.02 26.754-3.811 11.205-3.073 10.685 3.49-2.461 5.895-11.806 11.215-19.615 12.494-18.337.358.358-.097 2.097-1.012 3.865-.914 1.768-2.747 7.493-4.073 12.721-5.933 23.387-1.172 47.772 13.113 67.178 4.862 6.604 5.101 8.135.979 6.257-5.031-2.293-2.341.749 2.955 3.34 7.361 3.601 8.069 2.958 3.876-3.524-18.027-27.876-22.539-64.138-11.713-94.15 3.268-9.06 2.811-9.244-4.089-1.643m-75.597 48.571c2.478 8.638 9.368 16.927 19.928 23.975 7.142 4.766 8.737 5.239 7.051 2.088-.659-1.232-.929-4.132-.627-6.75l.528-4.591-7.658-3.674c-4.212-2.021-10.205-5.959-13.318-8.75-6.551-5.875-6.977-6.04-5.904-2.298M286.5 378.487c-9.602 4.51-13.448 15.816-8.606 25.303 2.375 4.654 3.965 6.025 12.362 10.66 9.807 5.413 11.683 8.815 7.671 13.915-4.215 5.36-11.365 2.564-12.482-4.88l-.672-4.485H276l.016 4.75c.06 17.053 21.095 23.421 30.71 9.296 6.931-10.183 2.779-19.854-11.816-27.524-5.46-2.869-7.419-4.495-8.482-7.041-2.762-6.609 2.543-12.963 8.827-10.574 3.444 1.309 4.745 3.937 4.745 9.582v4.621l4.75-.305c4.688-.301 4.754-.353 5.056-3.989 1.16-13.944-11.831-24.718-23.306-19.329M327 409v31h9.942l.279-13.25.279-13.25h13.672l.164 13 .164 13 4.75.305 4.75.305v-62.22l-4.75.305c-5.433.349-4.983-.923-5.144 14.555L351 403h-14v-25h-10v31m60.621-29.25c-.644 2.195-10.621 57.928-10.621 59.33 0 .604 1.959.904 4.745.725 4.402-.283 4.782-.522 5.26-3.305.51-2.972.576-3 6.995-3 6.419 0 6.485.028 6.995 3 .478 2.783.858 3.022 5.26 3.305 2.61.167 4.745-.131 4.745-.663s-2.25-14.007-5-29.945-5-29.477-5-30.087c0-2.035-12.773-1.424-13.379.64M428 409v31h9.942l.279-13.25.279-13.25 3.186-.309c8.388-.812 11.314 3.681 11.314 17.374V440h9l.101-8.25c.157-12.746-.086-14.96-2.101-19.126-1.858-3.843-1.855-3.901.267-6.771 3.267-4.419 3.531-14.125.524-19.278-3.824-6.551-9.003-8.575-21.948-8.575H428v31m53.709-29.683c-.278.724-.572 14.674-.654 31L480.906 440H491v-10.889c0-9.237.29-11.248 1.914-13.25 2.362-2.913 1.677-3.819 8.607 11.389L507.33 440h5.394c2.967 0 5.23-.337 5.03-.75-.2-.413-4.115-8.715-8.7-18.451l-8.337-17.7 6.99-11.3c3.845-6.214 7.311-11.861 7.701-12.549.526-.927-.559-1.25-4.197-1.25h-4.908l-6.733 10.5c-3.703 5.775-7.146 10.5-7.651 10.5-.506 0-.919-4.725-.919-10.5V378h-4.393c-2.71 0-4.587.504-4.898 1.317M438 395.5v7.5h5.066c6.08 0 8.693-1.237 10.027-4.745 2.223-5.846-2.351-10.255-10.64-10.255H438v7.5m-44.34 2.5c-.973 2.543-4.412 24.454-3.964 25.25.232.413 2.169.75 4.304.75 5.094 0 5.022.326 2.927-13.333-2.05-13.361-2.434-14.849-3.267-12.667" fill-rule="evenodd"/><path fill="#134d70" stroke="#134d70" d="M486 116.643c-21.189 1.928-39.491 5.166-65.25 11.544-18.66 4.62-21.389 6.052-5.586 2.933 11.744-2.318 34.09-5.528 50.336-7.231 22.481-2.356 69.011-.712 72.277 2.554 1.329 1.329-3.214 6.986-17.277 21.512-14.59 15.07-14.59 15.578 0 4.173 9.66-7.552 30.801-28.719 30.28-30.318-1.204-3.69-43.733-7.083-64.78-5.167m-170.304 1.994c-.35.351.181 1.813 1.181 3.25 6.059 8.711 6.723 32.021 1.342 47.091-.299.837 2.567-1.434 6.369-5.047 8.64-8.21 16.02-13.213 29.386-19.919l10.473-5.255-6.582-6.235c-3.62-3.43-9.016-7.427-11.991-8.883-8.04-3.933-27.947-7.233-30.178-5.002m126.827 35.477c-8.895 1.296-8.9 1.718-.023 1.824 16.349.197 29.62 4.968 33.148 11.916a595.295 595.295 0 0 0 2.049 4.01c1.225 2.259 11.303-7.971 11.303-11.473 0-6.119-24.676-9.452-46.477-6.277m-111.167 14.174C316.945 180.087 305.914 199 301.487 219.5c-.951 4.4-1.848 8.466-1.994 9.036-.146.57-7.854 2.297-17.129 3.838-22.636 3.762-40.01 7.836-56.864 13.332-12.559 4.095-32.004 12.123-31.233 12.894.165.165 4.56-.81 9.766-2.168 27.904-7.274 61.249-10.179 81.45-7.097 6.975 1.064 10.361 1.209 11.238.481 1.661-1.378 1.973-.243 2.718 9.905 3.279 44.682 33.357 81.049 72.061 87.131 8.27 1.3 7.965.961-3.067-3.404-38.531-15.248-63.392-52.916-63.427-96.103l-.006-7.156 6.75-4.95c3.712-2.723 7.65-5.494 8.75-6.159 1.631-.986.543-1.105-5.886-.646l-7.885.563.65-4.745c2.297-16.759 13.382-40.566 25.844-55.502 2.18-2.613 3.809-4.733 3.62-4.712-.189.021-2.658 1.934-5.487 4.25M440 206.708c-33.958 17.764-40.207 21.321-49.211 28.01-31.351 23.292-48.547 49.912-44.919 69.538 2.89 15.633 12.251 25.027 26.191 26.284l5.439.49-5.084-1.898c-22.391-8.357-27.181-25.688-14.344-51.909 7.357-15.028 28.858-34.525 59.428-53.886 42.179-26.714 43.146-27.429 22.5-16.629m-38.5 32.834c-7.126 4.173-15.585 11.93-12 11.005 9.324-2.405 28.519-2.352 32.82.092 2.278 1.294-4.872-5.934-9.66-9.766-5.557-4.447-5.791-4.475-11.16-1.331m-.764 44.426c-4.152 4.485-7.91 9.921-10.542 15.25-5.75 11.641-6.237 15.08-.646 4.557 4.413-8.305 11.671-17.844 12.764-16.775.281.275-.612 3.2-1.984 6.5-11.178 26.879-6.319 60.357 11.746 80.932 3.516 4.004 3.56 4.317.676 4.826-1.987.352-1.816.593 1.468 2.07 5.686 2.557 6.149 2.066 2.733-2.9-18.024-26.196-22.695-64.247-11.631-94.73 1.338-3.684 2.305-6.698 2.15-6.698-.156 0-3.186 3.136-6.734 6.968m-74.235 47.098c2.488 8.048 8.481 15.464 17.763 21.983 8.062 5.662 9.074 5.97 7.694 2.342-.655-1.724-.656-3.827-.002-6.194.544-1.972.889-3.643.767-3.713-.123-.071-2.248-.878-4.723-1.794-4.63-1.713-10.681-5.611-18.046-11.624-3.975-3.245-4.164-3.3-3.453-1m-37.71 46.912c-9.246 2.823-14.403 12.32-11.846 21.817 1.547 5.746 5.009 9.45 12.827 13.724 8.958 4.898 10.228 6.156 10.228 10.136 0 4.436-2.971 7.345-7.5 7.345-2.167 0-4.262-.762-5.5-2-1.238-1.238-2-3.333-2-5.5 0-3.481-.024-3.5-4.5-3.5-4.415 0-4.5.062-4.478 3.25.117 17.246 22.447 23.715 30.766 8.913 5.533-9.844 2.236-17.709-10.601-25.291-9.996-5.904-11.112-7.1-11.155-11.948-.041-4.531 3.292-7.924 7.782-7.924 4.815 0 7.186 2.97 7.186 9v5h9.233l-.406-6.38c-.731-11.477-10.466-19.563-20.036-16.642M328 409v31h3.893c4.888 0 4.903-.043 4.838-14.551l-.053-11.949 7.661-.292 7.661-.292V440h9v-62h-9v25h-15l-.115-8.75c-.064-4.812-.22-9.2-.348-9.75-.128-.55-.301-2.238-.385-3.75-.139-2.516-.492-2.75-4.152-2.75h-4v31m60-30.034c0 1.031-9.663 54.998-10.526 58.784-.473 2.077-.165 2.25 4.007 2.25 3.788 0 4.519-.31 4.519-1.918 0-4.507.912-5.082 8.062-5.082h6.847l.657 3.5c.634 3.378.812 3.5 5.113 3.5 3.775 0 4.376-.267 3.936-1.75-.286-.962-2.346-12.55-4.578-25.75s-4.535-26.363-5.118-29.25l-1.061-5.25h-5.929c-3.261 0-5.929.435-5.929.966m40.542 10.177c-.368 6.246-.528 20.132-.355 30.857l.313 19.5 4.221.306 4.22.306.28-13.306.279-13.306 5.243-.302c8.723-.502 10.257 1.854 10.257 15.757V440h9.206l-.353-12.272c-.304-10.563-.647-12.676-2.462-15.167l-2.109-2.894 2.859-5.435c4.748-9.027 2.793-17.6-5.224-22.906-3.857-2.552-5.209-2.838-14.973-3.173l-10.733-.367-.669 11.357M482 409v31h9v-11.389c0-9.46.304-11.764 1.792-13.603 2.336-2.885 2.622-2.508 9.45 12.492l5.462 12 4.648.305c2.556.167 4.648.027 4.648-.312s-3.777-8.688-8.393-18.554L500.214 403l7.004-11.25c9.031-14.505 8.816-13.75 3.915-13.75h-4.081l-7.186 11c-3.952 6.05-7.564 11-8.026 11-.462 0-.84-4.95-.84-11v-11h-9v31m-45-13.567c0 8.557.772 9.278 8.671 8.094C458.685 401.575 456.39 388 443.045 388H437v7.433m-44.007 1.317c-.003.413-.9 5.925-1.993 12.25-2.748 15.905-2.929 15 3 15 3.956 0 5-.341 5-1.631 0-1.746-2.744-20.378-3.552-24.119-.443-2.05-2.439-3.27-2.455-1.5" fill-rule="evenodd"/></svg>